<svg width="237" height="238" xmlns="http://www.w3.org/2000/svg" xmlns:xlink="http://www.w3.org/1999/xlink" xml:space="preserve" overflow="hidden"><g transform="translate(-648 -214)"><g><g><g><g><path d="M771.684 285.606C773.906 283.631 774.647 280.669 773.659 277.953 772.672 275.237 770.203 273.509 767.241 273.509L744.528 273.509C741.566 273.509 739.097 271.534 738.109 268.819L730.95 246.847C729.963 244.131 727.494 242.156 724.531 242.156 721.569 242.156 719.1 244.131 718.112 246.847L710.953 268.819C709.966 271.534 707.497 273.509 704.534 273.509L681.822 273.509C679.106 273.509 676.391 275.237 675.403 277.953 674.416 280.669 675.156 283.631 677.378 285.606L685.278 292.766 695.4 301.653C696.388 302.641 697.128 303.628 697.375 304.863 697.622 306.097 697.622 307.578 697.375 308.812L690.463 332.019C689.475 334.734 690.463 337.697 692.931 339.425 695.153 341.153 698.362 341.153 700.831 339.672L720.581 325.847C722.803 324.119 726.013 324.119 728.234 325.847L747.984 339.672C750.453 341.4 753.416 341.153 755.884 339.425 758.106 337.697 759.094 334.734 758.353 332.019L751.688 308.812C750.947 306.344 751.688 303.381 753.662 301.653L771.684 285.606Z" fill="#FFC000" fill-rule="nonzero" fill-opacity="1"/><path d="M855.869 321.403C857.597 319.922 858.091 317.453 857.35 315.478 856.609 313.256 854.634 312.022 852.413 311.775L834.391 311.775C832.169 311.775 829.947 310.294 829.206 308.072L823.528 290.297C822.788 288.075 820.812 286.594 818.344 286.594 816.122 286.594 813.9 288.075 813.159 290.297L807.481 308.072C806.741 310.294 804.766 311.775 802.297 311.775L784.275 311.775C782.053 311.775 780.078 313.256 779.338 315.478 778.597 317.7 779.091 319.922 780.819 321.403L787.237 327.081 795.384 334.241C796.125 334.981 796.619 335.969 797.112 336.956 797.359 337.944 797.359 338.931 797.112 340.166L791.188 358.434C790.447 360.656 791.188 363.125 793.162 364.359 795.138 365.841 797.606 365.841 799.334 364.359L815.134 353.25C816.862 352.016 819.331 352.016 821.306 353.25L837.106 364.359C839.081 365.841 841.55 365.841 843.525 364.359 845.5 362.878 846.241 360.409 845.5 358.188L840.069 339.672C839.575 337.697 840.069 335.475 841.797 333.994L855.869 321.403Z" fill="#FFC000" fill-rule="nonzero" fill-opacity="1"/><path d="M787.237 391.762C788.472 390.528 788.966 388.8 788.472 387.319 787.978 385.837 786.25 384.603 784.769 384.603L771.191 384.603C769.463 384.603 767.981 383.369 767.487 381.887L763.044 368.556C762.303 366.828 760.822 365.594 759.094 365.594 757.366 365.594 755.884 366.828 755.144 368.309L750.7 381.641C750.206 383.369 748.725 384.356 746.997 384.356L733.419 384.356C731.691 384.356 730.209 385.344 729.716 387.072 729.222 388.553 729.716 390.528 730.95 391.516L735.641 395.712 741.566 401.144C742.059 401.637 742.553 402.378 742.8 403.119 743.047 403.859 743.047 404.6 742.8 405.341L738.603 419.413C738.109 421.141 738.603 422.869 740.084 423.856 741.566 424.844 743.294 424.844 744.775 423.856L756.625 415.462C758.106 414.475 759.834 414.475 761.316 415.462L773.166 423.856C774.647 424.844 776.375 424.844 777.856 423.856 779.338 422.869 779.831 420.894 779.338 419.413L775.141 405.341C774.647 403.859 775.141 402.131 776.375 401.144L787.237 391.762Z" fill="#FFC000" fill-rule="nonzero" fill-opacity="1"/></g></g></g></g></g></svg>